<svg xmlns="http://www.w3.org/2000/svg" viewBox="0 0 64 64"><defs><style>.cls-1{fill:#231f20;}</style></defs><title>Masker N95</title><g id="Masker_N95" data-name="Masker N95"><path class="cls-1" d="M24.11,22a8.76,8.76,0,0,0,3.43-1.15,10.36,10.36,0,0,0,2.14-2C30.47,17.88,31.22,17,32,17h0c.76,0,1.51.86,2.3,1.78a10.36,10.36,0,0,0,2.14,2A8.76,8.76,0,0,0,39.89,22H40a1,1,0,0,0,.11-2,7.2,7.2,0,0,1-2.57-.85,9.23,9.23,0,0,1-1.71-1.67C34.83,16.33,33.69,15,32,15H32c-1.67,0-2.81,1.31-3.81,2.47a9.23,9.23,0,0,1-1.71,1.67,7.2,7.2,0,0,1-2.57.85,1,1,0,1,0,.22,2Z"/><path class="cls-1" d="M57,11c-3.56,0-7.19,5.37-9.48,9.56C42.24,15.36,34.67,11,32,11s-10.24,4.36-15.52,9.56C14.19,16.37,10.56,11,7,11c-4.71,0-7,6.54-7,20,0,9.23,4.11,19,8,19,2.13,0,5.45-3.2,7.89-5.92C19.39,49,24.76,53,32,53s12.61-4,16.11-8.92C50.55,46.8,53.87,50,56,50c3.89,0,8-9.77,8-19C64,17.54,61.71,11,57,11ZM8,48c-2,0-6-7.87-6-17C2,19.39,3.78,13,7,13c2.4,0,5.65,4.64,8,9.08-2.39,2.66-4,5.45-4,7.92a25.6,25.6,0,0,0,3.76,12.33C12,45.4,9.18,48,8,48Zm24,3c-6.91,0-11.71-3.87-14.76-8.47.71-.85,1.27-1.56,1.55-1.92a1,1,0,0,0-1.58-1.22c-.34.44-.7.88-1.07,1.33A24.38,24.38,0,0,1,13,30c0-1.8,1.2-3.91,3-6,.36.73.68,1.44,1,2.09a1,1,0,1,0,1.84-.79c-.16-.36-.64-1.45-1.35-2.87C22.34,17.49,29.78,13,32,13s9.66,4.49,14.55,9.41c-.71,1.42-1.19,2.51-1.35,2.87a1,1,0,1,0,1.84.79c.28-.65.6-1.36,1-2.09,1.8,2.11,3,4.22,3,6a24.38,24.38,0,0,1-3.14,10.72c-.37-.45-.73-.89-1.07-1.33a1,1,0,1,0-1.58,1.22c.28.36.84,1.07,1.55,1.92C43.71,47.13,38.91,51,32,51Zm24-3c-1.18,0-4-2.6-6.76-5.67A25.6,25.6,0,0,0,53,30c0-2.47-1.64-5.26-4-7.92C51.35,17.64,54.6,13,57,13c3.22,0,5,6.39,5,18C62,40.13,58,48,56,48Z"/><path class="cls-1" d="M46.92,33.34a1,1,0,0,0-1.3-.56A38.46,38.46,0,0,1,32,35a38.46,38.46,0,0,1-13.62-2.22,1,1,0,1,0-.74,1.86A40.5,40.5,0,0,0,32,37a40.5,40.5,0,0,0,14.36-2.36A1,1,0,0,0,46.92,33.34Z"/><path class="cls-1" d="M38.85,40.51a48.37,48.37,0,0,1-13.7,0,1,1,0,1,0-.3,2A49.32,49.32,0,0,0,32,43a49.32,49.32,0,0,0,7.15-.51,1,1,0,1,0-.3-2Z"/><path class="cls-1" d="M38.85,28.51a48.37,48.37,0,0,1-13.7,0,1,1,0,0,0-.3,2A49.32,49.32,0,0,0,32,31a49.32,49.32,0,0,0,7.15-.51,1,1,0,0,0-.3-2Z"/></g></svg>