<svg xmlns="http://www.w3.org/2000/svg" viewBox="0 0 64 64"><defs><style>.cls-1{fill:#231f20;}</style></defs><title>Social Distance 6ft</title><g id="Social_Distance_6ft" data-name="Social Distance 6ft"><path class="cls-1" d="M32,29a1,1,0,0,0-1,1v2a1,1,0,0,0,2,0V30A1,1,0,0,0,32,29Z"/><path class="cls-1" d="M32,23a1,1,0,0,0-1,1v2a1,1,0,0,0,2,0V24A1,1,0,0,0,32,23Z"/><path class="cls-1" d="M32,35a1,1,0,0,0-1,1v2a1,1,0,0,0,2,0V36A1,1,0,0,0,32,35Z"/><path class="cls-1" d="M32,41a1,1,0,0,0-1,1v2a1,1,0,0,0,2,0V42A1,1,0,0,0,32,41Z"/><path class="cls-1" d="M32,47a1,1,0,0,0-1,1v2a1,1,0,0,0,2,0V48A1,1,0,0,0,32,47Z"/><path class="cls-1" d="M32,53a1,1,0,0,0-1,1v2a1,1,0,0,0,2,0V54A1,1,0,0,0,32,53Z"/><path class="cls-1" d="M32,59a1,1,0,0,0-1,1v2a1,1,0,0,0,2,0V60A1,1,0,0,0,32,59Z"/><path class="cls-1" d="M43,17V14a3,3,0,0,0-3-3,3,3,0,0,0-2,.78A3,3,0,0,0,36,11a3,3,0,0,0-3,3v3a1,1,0,0,0,2,0V14a1,1,0,0,1,2,0v3a1,1,0,0,0,2,0V14a1,1,0,0,1,2,0v3a1,1,0,0,0,2,0Z"/><path class="cls-1" d="M30,16H26.27a2,2,0,0,1,1-.81l1.64-.66A3.39,3.39,0,0,0,27.61,8H27a3,3,0,0,0-3,3,1,1,0,0,0,2,0,1,1,0,0,1,1-1h.61a1.38,1.38,0,0,1,.52,2.67l-1.64.66A3.93,3.93,0,0,0,24,17a1,1,0,0,0,1,1h5a1,1,0,0,0,0-2Z"/><path class="cls-1" d="M10.08,4.38a1,1,0,0,0,.21.33l3,3a1,1,0,0,0,1.42,0,1,1,0,0,0,0-1.42L13.41,5H50.59l-1.3,1.29a1,1,0,0,0,0,1.42,1,1,0,0,0,1.42,0l3-3a1,1,0,0,0,.21-.33,1,1,0,0,0,0-.76,1,1,0,0,0-.21-.33l-3-3a1,1,0,0,0-1.42,1.42L50.59,3H13.41l1.3-1.29A1,1,0,1,0,13.29.29l-3,3a1,1,0,0,0-.21.33A1,1,0,0,0,10.08,4.38Z"/><path class="cls-1" d="M15.44,25A5.93,5.93,0,0,0,17,21V18A6,6,0,0,0,5,18v3a5.93,5.93,0,0,0,1.56,4A7,7,0,0,0,0,32V44a3,3,0,0,0,3,3,2.81,2.81,0,0,0,1-.18V59.4A4.21,4.21,0,0,0,2,63a1,1,0,0,0,1,1h7a1,1,0,0,0,1-1v0a1,1,0,0,0,1,1h7a1,1,0,0,0,1-1,4.17,4.17,0,0,0-2-3.6V46.82A2.81,2.81,0,0,0,19,47a3,3,0,0,0,3-3V32A7,7,0,0,0,15.44,25ZM7,18a4,4,0,0,1,8,0v3a4,4,0,0,1-8,0ZM20,44a1,1,0,0,1-1,1,1,1,0,0,1-.38-.08l-.08,0A1,1,0,0,1,18,44V31a1,1,0,0,0-2,0V60a1,1,0,0,0,.54.89l.23.12a2.23,2.23,0,0,1,1,1H13L12,44a1,1,0,0,0-2,0L9.05,62H4.23a2.25,2.25,0,0,1,1-1l.21-.11A1,1,0,0,0,6,60V31a1,1,0,0,0-2,0V44a1,1,0,0,1-.54.88l-.08,0A1,1,0,0,1,3,45a1,1,0,0,1-1-1V32a5,5,0,0,1,5-5h8a5,5,0,0,1,5,5Z"/><path class="cls-1" d="M57.44,25A5.93,5.93,0,0,0,59,21V18a6,6,0,0,0-12,0v3a5.93,5.93,0,0,0,1.56,4A7,7,0,0,0,42,32V44a3,3,0,0,0,3,3,2.81,2.81,0,0,0,1-.18V59.4A4.21,4.21,0,0,0,44,63a1,1,0,0,0,1,1h7a1,1,0,0,0,1-1v0a1,1,0,0,0,1,1h7a1,1,0,0,0,1-1,4.17,4.17,0,0,0-2-3.6V46.82A2.81,2.81,0,0,0,61,47a3,3,0,0,0,3-3V32A7,7,0,0,0,57.44,25ZM49,18a4,4,0,0,1,8,0v3a4,4,0,0,1-8,0ZM62,44a1,1,0,0,1-1,1,1,1,0,0,1-.38-.08l-.08,0A1,1,0,0,1,60,44V31a1,1,0,0,0-2,0V60a1,1,0,0,0,.54.89l.23.12a2.23,2.23,0,0,1,1,1H55L54,44a1,1,0,0,0-2,0l-1,18H46.23a2.25,2.25,0,0,1,1-1l.21-.11A1,1,0,0,0,48,60V31a1,1,0,0,0-2,0V44a1,1,0,0,1-.54.88l-.08,0A1,1,0,0,1,45,45a1,1,0,0,1-1-1V32a5,5,0,0,1,5-5h8a5,5,0,0,1,5,5Z"/></g></svg>