<svg id="Themperature" xmlns="http://www.w3.org/2000/svg" viewBox="0 0 64 64"><defs><style>.cls-1{fill:#231f20;}</style></defs><title>Themperature</title><path class="cls-1" d="M39,44.53V7A7,7,0,0,0,25,7V44.53A10.89,10.89,0,0,0,21,53a11,11,0,0,0,22,0A10.89,10.89,0,0,0,39,44.53ZM32,62a9,9,0,0,1-9-9,8.92,8.92,0,0,1,3.6-7.19A1,1,0,0,0,27,45V7A5,5,0,0,1,37,7V45a1,1,0,0,0,.4.8A8.92,8.92,0,0,1,41,53,9,9,0,0,1,32,62Z"/><path class="cls-1" d="M35,47.81V18a3,3,0,0,0-6,0V47.81a6,6,0,0,0,1.72,11.06A6.08,6.08,0,0,0,32,59a6,6,0,0,0,3-11.19Zm-.48,8.3a4,4,0,1,1-4.12-6.77,1,1,0,0,0,.6-.92V18a1,1,0,0,1,2,0V48.42a1,1,0,0,0,.6.92,4,4,0,0,1,.92,6.77Z"/><path class="cls-1" d="M63,24H61.94a8.13,8.13,0,0,0-1.62-3.9h0l1.39-1.39a1,1,0,0,0-1.42-1.42L58.9,18.68h0A8.13,8.13,0,0,0,55,17.06V16a1,1,0,0,0-2,0v1.06a8.13,8.13,0,0,0-3.9,1.62h0l-1.39-1.39a1,1,0,0,0-1.42,1.42l1.39,1.39h0A8.13,8.13,0,0,0,46.06,24H45a1,1,0,0,0,0,2h1.06a8.13,8.13,0,0,0,1.62,3.9h0l-1.39,1.39a1,1,0,0,0,0,1.42,1,1,0,0,0,1.42,0l1.39-1.39h0A8.13,8.13,0,0,0,53,32.94V34a1,1,0,0,0,2,0V32.94a8.13,8.13,0,0,0,3.9-1.62h0l1.39,1.39a1,1,0,0,0,1.42,0,1,1,0,0,0,0-1.42L60.32,29.9h0A8.13,8.13,0,0,0,61.94,26H63a1,1,0,0,0,0-2ZM49.76,29.24A5.86,5.86,0,0,1,48.09,26h0a1,1,0,0,0,0-2h0A6,6,0,0,1,53,19.09h0a1,1,0,0,0,2,0h0A6,6,0,0,1,59.91,24h0a1,1,0,0,0,0,2h0A6,6,0,0,1,55,30.91h0a1,1,0,0,0-2,0h0A5.86,5.86,0,0,1,49.76,29.24Z"/><circle class="cls-1" cx="51.5" cy="23.5" r="1.5"/><circle class="cls-1" cx="57" cy="24" r="1"/><circle class="cls-1" cx="54" cy="27" r="1"/><path class="cls-1" d="M19.89,32.47a6,6,0,0,0,1-2.47H22a1,1,0,0,0,0-2H20.91a6,6,0,0,0-1-2.47l.77-.77a1,1,0,0,0-1.42-1.42l-.77.77a6,6,0,0,0-2.47-1V22a1,1,0,0,0-2,0v1.09a6,6,0,0,0-2.47,1l-.77-.77a1,1,0,0,0-1.42,1.42l.77.77a6,6,0,0,0-1,2.47H8a1,1,0,0,0,0,2H9.09a6,6,0,0,0,1,2.47l-.77.77a1,1,0,0,0,0,1.42,1,1,0,0,0,1.42,0l.77-.77a6,6,0,0,0,2.47,1V36a1,1,0,0,0,2,0V34.91a6,6,0,0,0,2.47-1l.77.77a1,1,0,0,0,1.42,0,1,1,0,0,0,0-1.42ZM15,32a1,1,0,0,0-1,.87,4,4,0,0,1-2.9-2.9,1,1,0,0,0,0-1.94,4,4,0,0,1,2.9-2.9,1,1,0,0,0,1.94,0,4,4,0,0,1,2.9,2.9,1,1,0,0,0,0,1.94,4,4,0,0,1-2.9,2.9A1,1,0,0,0,15,32Z"/><path class="cls-1" d="M13,54H11.9a5.08,5.08,0,0,0-.88-2l.76-.75a1,1,0,0,0-1.42-1.42l-.83.83A4.86,4.86,0,0,0,8,50.1V49a1,1,0,0,0-2,0v1.1a5,5,0,0,0-1.76.74l-1-1a1,1,0,0,0-1.41,0,1,1,0,0,0,0,1.42l1,1A4.85,4.85,0,0,0,2.1,54H1a1,1,0,0,0,0,2H2.1a4.86,4.86,0,0,0,.61,1.53l-.83.84a1,1,0,0,0,0,1.41,1,1,0,0,0,1.41,0L4.05,59a5.08,5.08,0,0,0,2,.88V61a1,1,0,0,0,2,0V59.9a4.85,4.85,0,0,0,1.75-.73l.61.61a1,1,0,0,0,.71.3,1,1,0,0,0,.71-.3,1,1,0,0,0,0-1.41l-.62-.61A5,5,0,0,0,11.9,56H13a1,1,0,0,0,0-2ZM9.65,56.25a1,1,0,0,0-1.41,1.41l0,0A2.9,2.9,0,0,1,7,58a3,3,0,0,1-1.53-.43A1,1,0,0,0,4.22,56.1,2.88,2.88,0,0,1,4,55a3,3,0,0,1,.34-1.36.92.92,0,0,0,.36.07,1,1,0,0,0,.93-1.37A3.05,3.05,0,0,1,7,52a2.88,2.88,0,0,1,1.1.22,1,1,0,0,0,.14,1.2,1,1,0,0,0,.71.29,1,1,0,0,0,.62-.24,2.93,2.93,0,0,1,.13,2.82Z"/><path class="cls-1" d="M57,54a3,3,0,1,0,3,3A3,3,0,0,0,57,54Zm0,4a1,1,0,1,1,1-1A1,1,0,0,1,57,58Z"/><path class="cls-1" d="M19,14a3,3,0,1,0-3-3A3,3,0,0,0,19,14Zm0-4a1,1,0,1,1-1,1A1,1,0,0,1,19,10Z"/><path class="cls-1" d="M60.5,7A3.5,3.5,0,1,0,57,3.5,3.5,3.5,0,0,0,60.5,7Zm0-5A1.5,1.5,0,1,1,59,3.5,1.5,1.5,0,0,1,60.5,2Z"/><circle class="cls-1" cx="4" cy="4" r="2"/><circle class="cls-1" cx="47" cy="39" r="2"/><circle class="cls-1" cx="14.5" cy="43.5" r="1.5"/></svg>